<svg xmlns="http://www.w3.org/2000/svg" width="1200" height="1200" viewBox="0 0 1200 1200">
  <defs>
    <linearGradient id="sweep" gradientUnits="userSpaceOnUse" x1="84" y1="370" x2="969" y2="480">
      <stop offset="0.08" stop-color="#dfe4ee"/>
      <stop offset="0.42" stop-color="#38bdf8"/>
      <stop offset="0.68" stop-color="#a5b4fc"/>
      <stop offset="0.96" stop-color="#eef1f6"/>
    </linearGradient>
    <radialGradient id="glow" cx="0.42" cy="0.04" r="0.9">
      <stop offset="0" stop-color="#38bdf8" stop-opacity="0.18"/>
      <stop offset="1" stop-color="#38bdf8" stop-opacity="0"/>
    </radialGradient>
    <pattern id="grid" width="42" height="42" patternUnits="userSpaceOnUse">
      <path d="M42 0H0V42" fill="none" stroke="#141924" stroke-width="1"/>
    </pattern>
  </defs>

  <rect width="1200" height="1200" fill="#06070a"/>

  <g transform="translate(0,285)">
    <rect y="0" width="1200" height="630" fill="#06070a"/>
    <rect y="0" width="1200" height="630" fill="url(#grid)"/>
    <rect y="0" width="1200" height="440" fill="url(#glow)"/>
    <rect y="0" width="1200" height="6" fill="#38bdf8"/>

    <g fill="url(#sweep)">
      <rect x="84.0" y="92.0" width="13.4" height="19.4"/>
      <rect x="99.0" y="92.0" width="13.4" height="19.4"/>
      <rect x="114.0" y="92.0" width="13.4" height="19.4"/>
      <rect x="129.0" y="92.0" width="13.4" height="19.4"/>
      <rect x="144.0" y="92.0" width="13.4" height="19.4"/>
      <rect x="189.0" y="92.0" width="13.4" height="19.4"/>
      <rect x="204.0" y="92.0" width="13.4" height="19.4"/>
      <rect x="219.0" y="92.0" width="13.4" height="19.4"/>
      <rect x="234.0" y="92.0" width="13.4" height="19.4"/>
      <rect x="249.0" y="92.0" width="13.4" height="19.4"/>
      <rect x="264.0" y="92.0" width="13.4" height="19.4"/>
      <rect x="309.0" y="92.0" width="13.4" height="19.4"/>
      <rect x="324.0" y="92.0" width="13.4" height="19.4"/>
      <rect x="339.0" y="92.0" width="13.4" height="19.4"/>
      <rect x="354.0" y="92.0" width="13.4" height="19.4"/>
      <rect x="369.0" y="92.0" width="13.4" height="19.4"/>
      <rect x="399.0" y="92.0" width="13.4" height="19.4"/>
      <rect x="459.0" y="92.0" width="13.4" height="19.4"/>
      <rect x="474.0" y="92.0" width="13.4" height="19.4"/>
      <rect x="564.0" y="92.0" width="13.4" height="19.4"/>
      <rect x="639.0" y="92.0" width="13.4" height="19.4"/>
      <rect x="669.0" y="92.0" width="13.4" height="19.4"/>
      <rect x="684.0" y="92.0" width="13.4" height="19.4"/>
      <rect x="699.0" y="92.0" width="13.4" height="19.4"/>
      <rect x="714.0" y="92.0" width="13.4" height="19.4"/>
      <rect x="729.0" y="92.0" width="13.4" height="19.4"/>
      <rect x="744.0" y="92.0" width="13.4" height="19.4"/>
      <rect x="789.0" y="92.0" width="13.4" height="19.4"/>
      <rect x="804.0" y="92.0" width="13.4" height="19.4"/>
      <rect x="819.0" y="92.0" width="13.4" height="19.4"/>
      <rect x="834.0" y="92.0" width="13.4" height="19.4"/>
      <rect x="849.0" y="92.0" width="13.4" height="19.4"/>
      <rect x="879.0" y="92.0" width="13.4" height="19.4"/>
      <rect x="939.0" y="92.0" width="13.4" height="19.4"/>
      <rect x="954.0" y="92.0" width="13.4" height="19.4"/>
      <rect x="84.0" y="113.0" width="13.4" height="19.4"/>
      <rect x="144.0" y="113.0" width="13.4" height="19.4"/>
      <rect x="159.0" y="113.0" width="13.4" height="19.4"/>
      <rect x="189.0" y="113.0" width="13.4" height="19.4"/>
      <rect x="294.0" y="113.0" width="13.4" height="19.4"/>
      <rect x="399.0" y="113.0" width="13.4" height="19.4"/>
      <rect x="444.0" y="113.0" width="13.4" height="19.4"/>
      <rect x="459.0" y="113.0" width="13.4" height="19.4"/>
      <rect x="564.0" y="113.0" width="13.4" height="19.4"/>
      <rect x="639.0" y="113.0" width="13.4" height="19.4"/>
      <rect x="699.0" y="113.0" width="13.4" height="19.4"/>
      <rect x="714.0" y="113.0" width="13.4" height="19.4"/>
      <rect x="774.0" y="113.0" width="13.4" height="19.4"/>
      <rect x="879.0" y="113.0" width="13.4" height="19.4"/>
      <rect x="924.0" y="113.0" width="13.4" height="19.4"/>
      <rect x="939.0" y="113.0" width="13.4" height="19.4"/>
      <rect x="84.0" y="134.0" width="13.4" height="19.4"/>
      <rect x="159.0" y="134.0" width="13.4" height="19.4"/>
      <rect x="189.0" y="134.0" width="13.4" height="19.4"/>
      <rect x="204.0" y="134.0" width="13.4" height="19.4"/>
      <rect x="219.0" y="134.0" width="13.4" height="19.4"/>
      <rect x="234.0" y="134.0" width="13.4" height="19.4"/>
      <rect x="249.0" y="134.0" width="13.4" height="19.4"/>
      <rect x="309.0" y="134.0" width="13.4" height="19.4"/>
      <rect x="324.0" y="134.0" width="13.4" height="19.4"/>
      <rect x="339.0" y="134.0" width="13.4" height="19.4"/>
      <rect x="354.0" y="134.0" width="13.4" height="19.4"/>
      <rect x="399.0" y="134.0" width="13.4" height="19.4"/>
      <rect x="414.0" y="134.0" width="13.4" height="19.4"/>
      <rect x="429.0" y="134.0" width="13.4" height="19.4"/>
      <rect x="444.0" y="134.0" width="13.4" height="19.4"/>
      <rect x="564.0" y="134.0" width="13.4" height="19.4"/>
      <rect x="594.0" y="134.0" width="13.4" height="19.4"/>
      <rect x="609.0" y="134.0" width="13.4" height="19.4"/>
      <rect x="639.0" y="134.0" width="13.4" height="19.4"/>
      <rect x="699.0" y="134.0" width="13.4" height="19.4"/>
      <rect x="714.0" y="134.0" width="13.4" height="19.4"/>
      <rect x="774.0" y="134.0" width="13.4" height="19.4"/>
      <rect x="879.0" y="134.0" width="13.4" height="19.4"/>
      <rect x="894.0" y="134.0" width="13.4" height="19.4"/>
      <rect x="909.0" y="134.0" width="13.4" height="19.4"/>
      <rect x="924.0" y="134.0" width="13.4" height="19.4"/>
      <rect x="84.0" y="155.0" width="13.4" height="19.4"/>
      <rect x="144.0" y="155.0" width="13.4" height="19.4"/>
      <rect x="159.0" y="155.0" width="13.4" height="19.4"/>
      <rect x="189.0" y="155.0" width="13.4" height="19.4"/>
      <rect x="369.0" y="155.0" width="13.4" height="19.4"/>
      <rect x="399.0" y="155.0" width="13.4" height="19.4"/>
      <rect x="444.0" y="155.0" width="13.4" height="19.4"/>
      <rect x="459.0" y="155.0" width="13.4" height="19.4"/>
      <rect x="564.0" y="155.0" width="13.4" height="19.4"/>
      <rect x="579.0" y="155.0" width="13.4" height="19.4"/>
      <rect x="624.0" y="155.0" width="13.4" height="19.4"/>
      <rect x="639.0" y="155.0" width="13.4" height="19.4"/>
      <rect x="699.0" y="155.0" width="13.4" height="19.4"/>
      <rect x="714.0" y="155.0" width="13.4" height="19.4"/>
      <rect x="774.0" y="155.0" width="13.4" height="19.4"/>
      <rect x="879.0" y="155.0" width="13.4" height="19.4"/>
      <rect x="924.0" y="155.0" width="13.4" height="19.4"/>
      <rect x="939.0" y="155.0" width="13.4" height="19.4"/>
      <rect x="84.0" y="176.0" width="13.4" height="19.4"/>
      <rect x="99.0" y="176.0" width="13.4" height="19.4"/>
      <rect x="114.0" y="176.0" width="13.4" height="19.4"/>
      <rect x="129.0" y="176.0" width="13.4" height="19.4"/>
      <rect x="144.0" y="176.0" width="13.4" height="19.4"/>
      <rect x="189.0" y="176.0" width="13.4" height="19.4"/>
      <rect x="204.0" y="176.0" width="13.4" height="19.4"/>
      <rect x="219.0" y="176.0" width="13.4" height="19.4"/>
      <rect x="234.0" y="176.0" width="13.4" height="19.4"/>
      <rect x="249.0" y="176.0" width="13.4" height="19.4"/>
      <rect x="264.0" y="176.0" width="13.4" height="19.4"/>
      <rect x="294.0" y="176.0" width="13.4" height="19.4"/>
      <rect x="309.0" y="176.0" width="13.4" height="19.4"/>
      <rect x="324.0" y="176.0" width="13.4" height="19.4"/>
      <rect x="339.0" y="176.0" width="13.4" height="19.4"/>
      <rect x="354.0" y="176.0" width="13.4" height="19.4"/>
      <rect x="399.0" y="176.0" width="13.4" height="19.4"/>
      <rect x="459.0" y="176.0" width="13.4" height="19.4"/>
      <rect x="474.0" y="176.0" width="13.4" height="19.4"/>
      <rect x="564.0" y="176.0" width="13.4" height="19.4"/>
      <rect x="639.0" y="176.0" width="13.4" height="19.4"/>
      <rect x="669.0" y="176.0" width="13.4" height="19.4"/>
      <rect x="684.0" y="176.0" width="13.4" height="19.4"/>
      <rect x="699.0" y="176.0" width="13.4" height="19.4"/>
      <rect x="714.0" y="176.0" width="13.4" height="19.4"/>
      <rect x="729.0" y="176.0" width="13.4" height="19.4"/>
      <rect x="744.0" y="176.0" width="13.4" height="19.4"/>
      <rect x="789.0" y="176.0" width="13.4" height="19.4"/>
      <rect x="804.0" y="176.0" width="13.4" height="19.4"/>
      <rect x="819.0" y="176.0" width="13.4" height="19.4"/>
      <rect x="834.0" y="176.0" width="13.4" height="19.4"/>
      <rect x="849.0" y="176.0" width="13.4" height="19.4"/>
      <rect x="879.0" y="176.0" width="13.4" height="19.4"/>
      <rect x="939.0" y="176.0" width="13.4" height="19.4"/>
      <rect x="954.0" y="176.0" width="13.4" height="19.4"/>
    </g>

    <text x="84" y="308" font-family="Helvetica Neue, Helvetica, Arial, sans-serif" font-size="35" font-weight="600" fill="#e6e9ef">A market terminal that sits on your desk.</text>
    <text x="84" y="356" font-family="Helvetica Neue, Helvetica, Arial, sans-serif" font-size="24" fill="#7b8496">Live quotes, charts, alerts and macro keys — on a Raspberry Pi</text>
    <text x="84" y="390" font-family="Helvetica Neue, Helvetica, Arial, sans-serif" font-size="24" fill="#7b8496">touchscreen that boots straight into the UI.</text>

    <rect x="84"  y="452" width="242" height="44" rx="10" fill="#0e1118" stroke="#212836"/>
    <text x="105" y="481" font-family="SF Mono, Menlo, monospace" font-size="19" fill="#8b94a6">Raspberry Pi 4 / 5</text>
    <rect x="342" y="452" width="152" height="44" rx="10" fill="#0e1118" stroke="#212836"/>
    <text x="363" y="481" font-family="SF Mono, Menlo, monospace" font-size="19" fill="#8b94a6">.img.xz</text>
    <rect x="510" y="452" width="130" height="44" rx="10" fill="#0e1118" stroke="#212836"/>
    <text x="531" y="481" font-family="SF Mono, Menlo, monospace" font-size="19" fill="#8b94a6">64-bit</text>

    <text x="84" y="566" font-family="SF Mono, Menlo, monospace" font-size="18" fill="#4d5666">chickenswaffle.github.io/deskwick-releases</text>
  </g>
</svg>
